name C:\Users\u0101727\Documents\MyRepositories\upper-imu-dc\Results\main_tracking\Case_31\FLX01_angularVelocities_bodyFrame.mot
datacolumns 4
datarows 117
range 3.51000000 4.67000000
endheader 
time	radius_imu_x	radius_imu_y	radius_imu_z	
          3.51000000	          0.02147131	          0.10520953	          0.10906604	
          3.52000000	          0.03595172	          0.06996145	          0.10497598	
          3.53000000	          0.05042942	          0.03256399	          0.09973419	
          3.54000000	          0.06386376	         -0.00147315	          0.09345874	
          3.55000000	          0.07530097	         -0.02680239	          0.08631780	
          3.56000000	          0.08401756	         -0.03921105	          0.07854166	
          3.57000000	          0.08961175	         -0.03639810	          0.07040241	
          3.58000000	          0.09202081	         -0.01839611	          0.06216558	
          3.59000000	          0.09147242	          0.01242081	          0.05403899	
          3.60000000	          0.08839897	          0.05176386	          0.04614780	
          3.61000000	          0.08334818	          0.09424889	          0.03854792	
          3.62000000	          0.07691420	          0.13442367	          0.03126819	
          3.63000000	          0.06969720	          0.16770784	          0.02436144	
          3.64000000	          0.06228347	          0.19100049	          0.01794752	
          3.65000000	          0.05523277	          0.20285244	          0.01223684	
          3.66000000	          0.04906802	          0.20324434	          0.00752914	
          3.67000000	          0.04426071	          0.19311436	          0.00418665	
          3.68000000	          0.04120988	          0.17386551	          0.00259501	
          3.69000000	          0.04022219	          0.14702614	          0.00313261	
          3.70000000	          0.04148597	          0.11401957	          0.00614671	
          3.71000000	          0.04505221	          0.07603446	          0.01193242	
          3.72000000	          0.05084789	          0.03410090	          0.02071899	
          3.73000000	          0.05872368	         -0.01058201	          0.03266446	
          3.74000000	          0.06850535	         -0.05624034	          0.04784606	
          3.75000000	          0.08000777	         -0.10040426	          0.06622461	
          3.76000000	          0.09300125	         -0.14031637	          0.08758136	
          3.77000000	          0.10715414	         -0.17373856	          0.11145990	
          3.78000000	          0.12199122	         -0.19967148	          0.13716818	
          3.79000000	          0.13690190	         -0.21849912	          0.16387703	
          3.80000000	          0.15120084	         -0.23147621	          0.19078865	
          3.81000000	          0.16421381	         -0.23991101	          0.21729712	
          3.82000000	          0.17536516	         -0.24452987	          0.24307597	
          3.83000000	          0.18426189	         -0.24538174	          0.26808099	
          3.84000000	          0.19076639	         -0.24232406	          0.29249425	
          3.85000000	          0.19502949	         -0.23572587	          0.31664262	
          3.86000000	          0.19745326	         -0.22686514	          0.34091288	
          3.87000000	          0.19858320	         -0.21777774	          0.36567294	
          3.88000000	          0.19896854	         -0.21070219	          0.39120766	
          3.89000000	          0.19904487	         -0.20738102	          0.41768433	
          3.90000000	          0.19907160	         -0.20841932	          0.44515530	
          3.91000000	          0.19912442	         -0.21292693	          0.47358082	
          3.92000000	          0.19913379	         -0.21870688	          0.50284826	
          3.93000000	          0.19896287	         -0.22306663	          0.53278881	
          3.94000000	          0.19850637	         -0.22397311	          0.56321411	
          3.95000000	          0.19777543	         -0.22106537	          0.59397678	
          3.96000000	          0.19693924	         -0.21613377	          0.62502479	
          3.97000000	          0.19631871	         -0.21288448	          0.65641789	
          3.98000000	          0.19635055	         -0.21601132	          0.68830779	
          3.99000000	          0.19754412	         -0.22984766	          0.72090480	
          4.00000000	          0.20043830	         -0.25705887	          0.75444449	
          4.01000000	          0.20555244	         -0.29777466	          0.78915284	
          4.02000000	          0.21333621	         -0.34931453	          0.82520915	
          4.03000000	          0.22413479	         -0.40644753	          0.86271136	
          4.04000000	          0.23816697	         -0.46207895	          0.90164020	
          4.05000000	          0.25549416	         -0.50833415	          0.94181018	
          4.06000000	          0.27597310	         -0.53800532	          0.98280823	
          4.07000000	          0.29921303	         -0.54610926	          1.02394651	
          4.08000000	          0.32456672	         -0.53109684	          1.06426443	
          4.09000000	          0.35117757	         -0.49531446	          1.10259990	
          4.10000000	          0.37809012	         -0.44457092	          1.13772435	
          4.11000000	          0.40439895	         -0.38690539	          1.16850899	
          4.12000000	          0.42938280	         -0.33087400	          1.19407246	
          4.13000000	          0.45258776	         -0.28394039	          1.21386988	
          4.14000000	          0.47387223	         -0.25163532	          1.22771389	
          4.15000000	          0.49344379	         -0.23775422	          1.23574384	
          4.16000000	          0.51189002	         -0.24519520	          1.23836668	
          4.17000000	          0.53016675	         -0.27661577	          1.23618536	
          4.18000000	          0.54949764	         -0.33425616	          1.22991897	
          4.19000000	          0.57117794	         -0.41897934	          1.22031361	
          4.20000000	          0.59632818	         -0.52917583	          1.20804915	
          4.21000000	          0.62565386	         -0.66009850	          1.19365714	
          4.22000000	          0.65923900	         -0.80367330	          1.17747007	
          4.23000000	          0.69639207	         -0.94853575	          1.15962221	
          4.24000000	          0.73559767	         -1.08031418	          1.14011791	
          4.25000000	          0.77466739	         -1.18275936	          1.11897006	
          4.26000000	          0.81114528	         -1.24036813	          1.09638050	
          4.27000000	          0.84286813	         -1.24203758	          1.07289052	
          4.28000000	          0.86842610	         -1.18385575	          1.04941000	
          4.29000000	          0.88732534	         -1.06945024	          1.02709035	
          4.30000000	          0.89991523	         -0.90860236	          1.00711694	
          4.31000000	          0.90730470	         -0.71624039	          0.99054052	
          4.32000000	          0.91136688	         -0.51252782	          0.97819426	
          4.33000000	          0.91469164	         -0.32227614	          0.97064124	
          4.34000000	          0.92026820	         -0.17144142	          0.96807697	
          4.35000000	          0.93085269	         -0.08086255	          0.97018632	
          4.36000000	          0.94822578	         -0.06006576	          0.97603397	
          4.37000000	          0.97265274	         -0.10425826	          0.98408093	
          4.38000000	          1.00278120	         -0.19597172	          0.99237214	
          4.39000000	          1.03604127	         -0.31092627	          0.99887175	
          4.40000000	          1.06944589	         -0.42633404	          1.00186303	
          4.41000000	          1.10053392	         -0.52874303	          1.00028321	
          4.42000000	          1.12805317	         -0.61770478	          0.99384586	
          4.43000000	          1.15202394	         -0.70274043	          0.98288025	
          4.44000000	          1.17318617	         -0.79494159	          0.96798931	
          4.45000000	          1.19222975	         -0.89795673	          0.94974370	
          4.46000000	          1.20926923	         -1.00308261	          0.92857325	
          4.47000000	          1.22379808	         -1.09065546	          0.90487067	
          4.48000000	          1.23510489	         -1.13717858	          0.87921581	
          4.49000000	          1.24293463	         -1.12516193	          0.85258577	
          4.50000000	          1.24802218	         -1.05078243	          0.82641226	
          4.51000000	          1.25217465	         -0.92532397	          0.80241702	
          4.52000000	          1.25790082	         -0.77047844	          0.78229457	
          4.53000000	          1.26784467	         -0.61105130	          0.76738770	
          4.54000000	          1.28424040	         -0.46848094	          0.75845455	
          4.55000000	          1.30849916	         -0.35696888	          0.75556124	
          4.56000000	          1.34105144	         -0.28310275	          0.75811724	
          4.57000000	          1.38151158	         -0.24848145	          0.76503206	
          4.58000000	          1.42899194	         -0.25264312	          0.77489530	
          4.59000000	          1.48227315	         -0.29349885	          0.78608224	
          4.60000000	          1.53973436	         -0.36548068	          0.79679195	
          4.61000000	          1.59921675	         -0.45823363	          0.80510828	
          4.62000000	          1.65806661	         -0.55821906	          0.80915324	
          4.63000000	          1.71345475	         -0.65287644	          0.80731155	
          4.64000000	          1.76283356	         -0.73441639	          0.79842641	
          4.65000000	          1.80429700	         -0.80042287	          0.78188215	
          4.66000000	          1.83674047	         -0.85141131	          0.75758447	
          4.67000000	          1.85987275	         -0.88800049	          0.72590325	
